<?xml version="1.0" standalone="no"?><!DOCTYPE svg PUBLIC "-//W3C//DTD SVG 1.1//EN" "http://www.w3.org/Graphics/SVG/1.1/DTD/svg11.dtd"><svg class="icon" width="200px" height="200.00px" viewBox="0 0 1024 1024" version="1.1" xmlns="http://www.w3.org/2000/svg"><path d="M890.071579 911.494737H130.829474c-52.412632 0-94.854737-42.442105-94.854737-94.854737V199.814737c0-52.412632 42.442105-94.854737 94.854737-94.854737h759.107368c52.412632 0 94.854737 42.442105 94.854737 94.854737v616.825263c0.134737 52.412632-42.307368 94.854737-94.72 94.854737z m0 0" fill="#C5E6FF" /><path d="M984.926316 680.555789l-47.427369-57.397894-290.357894-289.684211c-23.04-23.04-60.496842-23.04-83.671579 0L399.898947 496.370526c-3.098947 3.098947-6.197895 3.772632-8.08421 3.772632s-5.658947-0.673684-8.084211-3.772632l-45.002105-44.328421c-23.04-23.04-60.496842-23.04-83.671579 0L83.402105 623.696842l-47.427368 57.397895v136.08421c0 52.412632 42.442105 94.854737 94.854737 94.854737h759.107368c52.412632 0 94.854737-42.442105 94.854737-94.854737V680.555789" fill="#58AFFF" /><path d="M166.4 270.955789c0 32.741053 26.543158 59.284211 59.284211 59.284211s59.284211-26.543158 59.28421-59.284211-26.543158-59.284211-59.28421-59.28421c-32.606316 0-59.284211 26.543158-59.284211 59.28421z m0 0" fill="#FFFFFF" /><path d="M668.429474 814.214737H231.343158c-13.743158 0-24.926316-11.183158-24.926316-24.926316s11.183158-24.926316 24.926316-24.926316h437.086316c13.743158 0 24.926316 11.183158 24.926315 24.926316s-11.183158 24.926316-24.926315 24.926316z m-218.543158-116.143158H231.343158c-13.743158 0-24.926316-11.183158-24.926316-24.926316s11.183158-24.926316 24.926316-24.926316h218.543158c13.743158 0 24.926316 11.183158 24.926316 24.926316 0 13.608421-11.183158 24.926316-24.926316 24.926316z m0 0" fill="#F3FAFF" /></svg>